{"title":"Paramparca S01E64 DVB-T By Ari Gr Subs (Ragismenes Kardies)","uid":13224940,"size":386946086,"categoryP":"video","categoryS":"tv_shows","magnet":"?xt=urn:btih:cb2458b2aabd4008d88cc182702aeeb57b477c60&amp;dn=Paramparca+S01E64+DVB-T+By+Ari+Gr+Subs+%28Ragismenes+Kardies%29&amp;tr=udp%3A%2F%2Ftracker.leechers-paradise.org%3A6969&amp;tr=udp%3A%2F%2Fzer0day.ch%3A1337&amp;tr=udp%3A%2F%2Fopen.demonii.com%3A1337&amp;tr=udp%3A%2F%2Ftracker.coppersurfer.tk%3A6969&amp;tr=udp%3A%2F%2Fexodus.desync.com%3A6969","seeders":1,"leechers":0,"uploader":"Aris2015","files":1,"time":1452844980,"description":"Î‘Ï…Ï„ÏŒ Î¤Î¿ Î‘ÏÏ‡ÎµÎ¯Î¿ Î Î¿Ï… ÎšÎ±Ï„ÎµÎ²Î¬ÏƒÎ±Ï„Îµ Î¤ÏŽÏÎ±, Î£Î¯Î³Î¿Ï…ÏÎ± Î˜Î± Î¸Î­Î»Î¿Ï…Î½ ÎÎ± Î¤Î¿ ÎšÎ±Ï„ÎµÎ²Î¬ÏƒÎ¿Ï…Î½ ÎšÎ¹ Î‘Î»Î»Î¿Î¹ Î§ÏÎ®ÏƒÏ„ÎµÏ‚! Î“Î¹Î± ÎÎ± Î“Î¯Î½ÎµÎ¹ Î‘Ï…Ï„ÏŒ...Î”ÎµÎ½ Î ÏÎ­Ï€ÎµÎ¹ ÎÎ± Î£Ï„Î±Î¼Î±Ï„Î¬Î¼Îµ Î‘Ï…Ï„Î¬ Î Î¿Ï… ÎšÎ±Ï„ÎµÎ²Î¬ÏƒÎ±Î¼Îµ ÎœÎ­Ï‡ÏÎ¹ ÎÎ± Î”ÏŽÏƒÎ¿Ï…Î¼Îµ Î Î¯ÏƒÏ‰ Î‘Ï…Ï„Î¬ Î Î¿Ï… Î Î®ÏÎ±Î¼Îµ,Î— ÎšÎ±Î¹ Î Î±ÏÎ±Ï€Î¬Î½Ï‰! ÎœÎ·Î½ ÎžÎµÏ‡Î½Î¬Î¼Îµ ÎŸÏ„Î¹ Î“Î¹Î± ÎÎ± ÎœÏ€Î¿ÏÎ¿ÏÎ¼Îµ ÎÎ± ÎšÎ±Ï„ÎµÎ²Î¬Î¶Î¿Ï…Î¼Îµ ÎœÎµ ÎšÎ±Î»Î­Ï‚ Î¤Î±Ï‡ÏÏ„Î·Ï„ÎµÏ‚ Î ÏÎ­Ï€ÎµÎ¹ ÎŸÎ»Î¿Î¹ ÎÎ± Î’Î¿Î·Î¸Î¬Î¼Îµ Î£Ï„Î¿Î½ Î”Î¹Î±Î¼Î¿Î¹ÏÎ±ÏƒÎ¼ÏŒ Î¤Î¿Î½ Î‘ÏÏ‡ÎµÎ¯Ï‰Î½, Î‘Î»Î»Î¬ ÎšÎ±Î¹ Î“Î¹Î± ÎÎ± ÎœÏ€Î¿ÏÎµÎ¯ Î•Î½Î±Ï‚ uploader ÎÎ± Î‘Î½ÎµÎ²Î¬Î¶ÎµÎ¹ ÎšÎ±Î¹ ÎÎ­Î± Î‘ÏÏ‡ÎµÎ¯Î± Î˜Î­Î»ÎµÎ¹ Ï„Î·Î½ Î’Î¿Î®Î¸ÎµÎ¹Î± \r\nÎŸÎ»Ï‰Î½ ÎœÎ±Ï‚ Î£Ï„Î¿Î½ Î”Î¹Î±Î¼Î¿Î¹ÏÎ±ÏƒÎ¼ÏŒ Î¤Î¿Ï…Ï‚. Î•Ï…Ï‡Î±ÏÎ¹ÏƒÏ„Î¿ÏÎ¼Îµ Î³Î¹Î± Ï„Î·Î½ ÎºÎ±Ï„Î±Î½ÏŒÎ·ÏƒÎ· ÏƒÎ±Ï‚! \r\nÎœÎ·Î½ Î¾ÎµÏ‡Î½Î¬Ï„Îµ Î½Î± Î»Î­Ï„Îµ ÎµÏ…Ï‡Î±ÏÎ¹ÏƒÏ„ÏŽ ÎºÎ±Î¹ Î½Î± seedÎ¬ÏÎµÏ„Îµ!!\r\n\r\nGeneral\r\nComplete name               : Paramparca S01E64 DVB-T By Ari.mp4\r\nFormat                      : MPEG-4\r\nFormat profile              : Base Media\r\nCodec ID                    : isom (isom/iso2/avc1/mp41)\r\nFile size                   : 369 MiB\r\nDuration                    : 45mn 30s\r\nOverall bit rate mode       : Variable\r\nOverall bit rate            : 1 134 Kbps\r\nMovie name                  : Paramparca S01E64 DVB-T\r\nPerformer                   : ARI\r\nGenre                       : DRAMA\r\nWriting application         : Lavf57.20.100\r\n\r\nVideo\r\nID                          : 1\r\nFormat                      : AVC\r\nFormat/Info                 : Advanced Video Codec\r\nFormat profile              :   \r\nFormat settings, CABAC      : Yes\r\nFormat settings, ReFrames   : 16 frames\r\nCodec ID                    : avc1\r\nCodec ID/Info               : Advanced Video Coding\r\nDuration                    : 45mn 30s\r\nBit rate mode               : Variable\r\nBit rate                    : 1 000 Kbps\r\nMaximum bit rate            : 17.5 Mbps\r\nWidth                       : 720 pixels\r\nHeight                      : 576 pixels\r\nDisplay aspect ratio        : 16:9\r\nFrame rate mode             : Constant\r\nFrame rate                  : 25.000 fps\r\nStandard                    : PAL\r\nColor space                 : YUV\r\nChroma subsampling          : 4:2:0\r\nBit depth                   : 8 bits\r\nScan type                   : Progressive\r\nBits/(Pixel*Frame)          : 0.096\r\nStream size                 : 326 MiB (88%)\r\nWriting library             : x264 core 148 r2638\r\nLanguage                    : Turkish\r\n\r\n\r\nAudio\r\nID                          : 2\r\nFormat                      : AAC\r\nFormat/Info                 : Advanced Audio Codec\r\nFormat profile              : LC\r\nCodec ID                    : 40\r\nDuration                    : 45mn 30s\r\nDuration_LastFrame          : -3ms\r\nBit rate mode               : Constant\r\nBit rate                    : 128 Kbps\r\nChannel(s)                  : 2 channels\r\nChannel positions           : Front: L R\r\nSampling rate               : 48.0 KHz\r\nFrame rate                  : 46.875 fps (1024 spf)\r\nCompression mode            : Lossy\r\nStream size                 : 41.7 MiB (11%)\r\nLanguage                    : Turkish\r\nDefault                     : Yes\r\nAlternate group             : 1","torrent":{"xt":"urn:btih:cb2458b2aabd4008d88cc182702aeeb57b477c60","amp;dn":"Paramparca+S01E64+DVB-T+By+Ari+Gr+Subs+%28Ragismenes+Kardies%29","amp;tr":["udp%3A%2F%2Ftracker.leechers-paradise.org%3A6969","udp%3A%2F%2Fzer0day.ch%3A1337","udp%3A%2F%2Fopen.demonii.com%3A1337","udp%3A%2F%2Ftracker.coppersurfer.tk%3A6969","udp%3A%2F%2Fexodus.desync.com%3A6969"],"infoHash":"cb2458b2aabd4008d88cc182702aeeb57b477c60","infoHashBuffer":{"type":"Buffer","data":[203,36,88,178,170,189,64,8,216,140,193,130,112,42,238,181,123,71,124,96]},"announce":[],"urlList":[]}}